<svg width="44" height="44" viewBox="0 0 44 44" fill="none" xmlns="http://www.w3.org/2000/svg">
<path d="M17.2335 30.25L22.0002 25.4833L26.7668 30.25L29.3335 27.6833L24.5668 22.9167L29.3335 18.15L26.7668 15.5833L22.0002 20.35L17.2335 15.5833L14.6668 18.15L19.4335 22.9167L14.6668 27.6833L17.2335 30.25ZM12.8335 38.5C11.8252 38.5 10.962 38.141 10.2439 37.4229C9.52586 36.7049 9.16683 35.8417 9.16683 34.8333V11H7.3335V7.33333H16.5002V5.5H27.5002V7.33333H36.6668V11H34.8335V34.8333C34.8335 35.8417 34.4745 36.7049 33.7564 37.4229C33.0384 38.141 32.1752 38.5 31.1668 38.5H12.8335ZM31.1668 11H12.8335V34.8333H31.1668V11Z" fill="#BD4C31"/>
</svg>
