<svg width="44" height="44" viewBox="0 0 44 44" fill="none" xmlns="http://www.w3.org/2000/svg">
<path d="M1.8335 38.5001L22.0002 3.66675L42.1668 38.5001H1.8335ZM8.1585 34.8334H35.8418L22.0002 11.0001L8.1585 34.8334ZM22.0002 33.0001C22.5196 33.0001 22.955 32.8244 23.3064 32.473C23.6578 32.1216 23.8335 31.6862 23.8335 31.1667C23.8335 30.6473 23.6578 30.2119 23.3064 29.8605C22.955 29.5091 22.5196 29.3334 22.0002 29.3334C21.4807 29.3334 21.0453 29.5091 20.6939 29.8605C20.3425 30.2119 20.1668 30.6473 20.1668 31.1667C20.1668 31.6862 20.3425 32.1216 20.6939 32.473C21.0453 32.8244 21.4807 33.0001 22.0002 33.0001ZM20.1668 27.5001H23.8335V18.3334H20.1668V27.5001Z" fill="#BD4C31"/>
</svg>
